<svg width="24" height="22" viewBox="0 0 24 22" fill="none" xmlns="http://www.w3.org/2000/svg">
<path d="M12 2C14.131 2 16 3.73 16 5.702C16 7.752 14.286 10.643 12 14.263C9.714 10.643 8 7.752 8 5.702C8 3.73 9.869 2 12 2ZM12 0C8.852 0 6 2.553 6 5.702C6 8.85 8.602 12.609 12 18C15.398 12.609 18 8.85 18 5.702C18 2.553 15.149 0 12 0ZM12 8C10.895 8 10 7.105 10 6C10 4.895 10.895 4 12 4C13.105 4 14 4.895 14 6C14 7.105 13.105 8 12 8ZM24 22H0L4 14H7.135C7.52 14.641 7.933 15.309 8.367 16H5.236L3.236 20H20.763L18.763 16H15.632C16.067 15.309 16.48 14.641 16.864 14H20L24 22Z" fill="white"/>
</svg>
