<svg width="24" height="24" viewBox="0 0 24 24" fill="none" xmlns="http://www.w3.org/2000/svg">
<path d="M23.7067 22.2928L16.8818 15.4678C18.2038 13.8349 18.9998 11.7599 18.9998 9.49991C18.9998 4.26197 14.7378 0 9.49986 0C4.26192 0 0 4.26192 0 9.49986C0 14.7378 4.26197 18.9998 9.49991 18.9998C11.7599 18.9998 13.8349 18.2038 15.4678 16.8818L22.2928 23.7067C22.4878 23.9017 22.7437 23.9997 22.9998 23.9997C23.2558 23.9997 23.5118 23.9017 23.7068 23.7067C24.0977 23.3157 24.0977 22.6837 23.7067 22.2928ZM9.49991 16.9998C5.36394 16.9998 1.99999 13.6358 1.99999 9.49986C1.99999 5.36389 5.36394 1.99995 9.49991 1.99995C13.6359 1.99995 16.9998 5.36389 16.9998 9.49986C16.9998 13.6358 13.6358 16.9998 9.49991 16.9998Z" fill="white"/>
</svg>
