<svg width="24" height="23" viewBox="0 0 24 23" fill="none" xmlns="http://www.w3.org/2000/svg">
<path d="M23.8615 4.3081C23.7241 4.1112 23.503 3.98949 23.2629 3.97924L8.37549 3.33752C7.94834 3.31883 7.59139 3.6486 7.57313 4.07376C7.55498 4.49876 7.88421 4.85786 8.30932 4.87612L22.1888 5.47444L19.4598 13.9891H7.31544L5.12137 2.0426C5.07314 1.78077 4.89338 1.56233 4.64546 1.46507L1.05195 0.0533277C0.655903 -0.10173 0.208991 0.0928038 0.0534498 0.48837C-0.101823 0.884151 0.0926573 1.33133 0.488492 1.48687L3.68369 2.7421L5.91648 14.8983C5.98378 15.2638 6.30227 15.5292 6.67399 15.5292H7.04437L6.19861 17.8784C6.12782 18.0752 6.15699 18.2937 6.27746 18.4647C6.39776 18.6357 6.59343 18.7374 6.8023 18.7374H7.39552C7.02793 19.1465 6.8023 19.6852 6.8023 20.2775C6.8023 21.5514 7.83883 22.5877 9.11243 22.5877C10.386 22.5877 11.4226 21.5514 11.4226 20.2775C11.4226 19.6852 11.1969 19.1465 10.8294 18.7374H15.8661C15.4983 19.1465 15.2727 19.6852 15.2727 20.2775C15.2727 21.5514 16.309 22.5877 17.5829 22.5877C18.8568 22.5877 19.893 21.5514 19.893 20.2775C19.893 19.6852 19.6674 19.1465 19.2999 18.7374H20.0214C20.3758 18.7374 20.6631 18.4501 20.6631 18.0958C20.6631 17.7413 20.3758 17.4541 20.0214 17.4541H7.71535L8.4083 15.529H20.0213C20.3562 15.529 20.6525 15.3126 20.7545 14.994L23.963 4.98338C24.0367 4.7549 23.9989 4.5051 23.8615 4.3081ZM9.11248 21.3045C8.54623 21.3045 8.08573 20.8441 8.08573 20.2778C8.08573 19.7115 8.54623 19.251 9.11248 19.251C9.67874 19.251 10.1392 19.7115 10.1392 20.2778C10.1392 20.8441 9.67874 21.3045 9.11248 21.3045ZM17.5829 21.3045C17.0166 21.3045 16.5562 20.8441 16.5562 20.2778C16.5562 19.7115 17.0166 19.251 17.5829 19.251C18.1491 19.251 18.6096 19.7115 18.6096 20.2778C18.6096 20.8441 18.1491 21.3045 17.5829 21.3045Z" fill="white"/>
</svg>
